PathFileType	4	(X/Y/Z)	./resultDataOpenSim/trcMotMarkerGrf/sub10/qtm-04-02.trc
DataRate	CameraRate	NumFrames	NumMarkers	Units	OrigDataRate	OrigDataStartFrame	OrigNumFrames
250.000000	250.000000	9	24	m	250.000000	132	527
Frame#	Time	L.Toe.Tip			R.Toe.Tip			L.Ankle.Lat			R.Ankle.Lat			L.Ankle.Med			R.Ankle.Med			L.Heel			R.Heel			L.Knee.Lat			R.Knee.Lat			L.Knee.Med			R.Knee.Med			L.Thigh.Upper			R.Thigh.Upper			L.ASIS			R.ASIS			V.Sacral			L.Acromium			R.Acromium			C7			L.Elbow			R.Elbow			L.Wrist.Lat			R.Wrist.Lat
		X1	Y1	Z1	X2	Y2	Z2	X3	Y3	Z3	X4	Y4	Z4	X5	Y5	Z5	X6	Y6	Z6	X7	Y7	Z7	X8	Y8	Z8	X9	Y9	Z9	X10	Y10	Z10	X11	Y11	Z11	X12	Y12	Z12	X13	Y13	Z13	X14	Y14	Z14	X15	Y15	Z15	X16	Y16	Z16	X17	Y17	Z17	X18	Y18	Z18	X19	Y19	Z19	X20	Y20	Z20	X21	Y21	Z21	X22	Y22	Z22	X23	Y23	Z23	X24	Y24	Z24

132	0.524	-0.64165938	0.070948272	-0.17628789	-0.7718815	0.039105889	0.023047062	-0.75890327	0.13468292	-0.16994421	-0.91583361	0.053711702	0.053611713	-0.72964634	0.14273333	-0.089816725	-0.89332019	0.080609952	-0.030737576	-0.82051824	0.11729387	-0.1099458	-0.96324158	0.03036409	0.0045913167	-0.59795529	0.48558684	-0.18494882	-0.81766597	0.4467081	0.10107261	-0.57191325	0.45456703	-0.068010611	-0.80960484	0.45116886	-0.029296615	-0.74579723	0.83101559	-0.22258971	-0.79450444	0.86157425	0.1592211	-0.70229289	0.94282236	-0.15073968	-0.7171724	0.95132326	0.094751291	-0.90687912	0.95666005	-0.044737148	-0.76209636	1.4211056	-0.1814977	-0.7949108	1.4156151	0.1349012	-0.85313544	1.4460941	-0.033319938	-0.87375006	1.0954532	-0.27419165	-0.86744891	1.0677158	0.19430561	-0.69414999	0.92407584	-0.23759846	-0.70436738	0.89841991	0.26917303
133	0.528	-0.62433852	0.07060402	-0.17570223	-0.77194606	0.039131731	0.023104153	-0.74327937	0.13119349	-0.17006073	-0.91566695	0.053780624	0.053559516	-0.7147758	0.13985337	-0.089811332	-0.89341229	0.080618153	-0.030849898	-0.80469739	0.11230956	-0.1103217	-0.96330578	0.030492589	0.0043494356	-0.59057322	0.486227	-0.18453521	-0.81706396	0.44657802	0.10140108	-0.56448099	0.45547052	-0.067568716	-0.80786605	0.45087278	-0.029201465	-0.73968938	0.83115899	-0.22255737	-0.79120193	0.86112683	0.15909035	-0.69697387	0.94274703	-0.15035491	-0.71293826	0.95079219	0.095347417	-0.90182289	0.95634605	-0.045211237	-0.75759236	1.4206666	-0.18135319	-0.79037927	1.4153564	0.13511814	-0.84855699	1.4457181	-0.03319376	-0.87048003	1.0955895	-0.27425176	-0.86036404	1.0666784	0.19456619	-0.69225567	0.92249053	-0.24023556	-0.69459258	0.89899148	0.26720631
134	0.532	-0.60699902	0.070276725	-0.17505131	-0.77194491	0.039169794	0.023157079	-0.72763326	0.12773417	-0.17008996	-0.91552661	0.053848042	0.053510439	-0.69951386	0.13700623	-0.089742384	-0.89334837	0.080638451	-0.030893076	-0.78868713	0.10721426	-0.11093072	-0.96335288	0.030625661	0.0041595368	-0.58325582	0.48677268	-0.1841714	-0.81611255	0.44642119	0.10170278	-0.55727965	0.45625299	-0.06718068	-0.80608812	0.45055469	-0.029101476	-0.7334071	0.83125355	-0.22241344	-0.78788037	0.86064667	0.15893662	-0.6916401	0.94261429	-0.14999407	-0.70888973	0.95019238	0.095858008	-0.89669554	0.95594159	-0.045520645	-0.75305821	1.4201795	-0.18121517	-0.78581495	1.4150328	0.1353163	-0.84396041	1.4453085	-0.033058877	-0.86718649	1.0956934	-0.27431438	-0.85330709	1.0655979	0.19478912	-0.69046481	0.92085028	-0.24288059	-0.68484377	0.89957213	0.26518291
135	0.536	-0.58957456	0.070015095	-0.17430154	-0.77190187	0.039208764	0.023202965	-0.71194255	0.12429316	-0.17012303	-0.91546163	0.053907701	0.053458382	-0.68379061	0.13431013	-0.089582987	-0.89319585	0.080665012	-0.030906566	-0.77251427	0.10203152	-0.11177337	-0.96337609	0.030729459	0.0040438182	-0.57607789	0.48716226	-0.18385056	-0.81504952	0.44626209	0.10200991	-0.55023144	0.45694654	-0.066804244	-0.80431092	0.45021707	-0.02903565	-0.72706733	0.83129982	-0.22225638	-0.78452121	0.8601285	0.15876188	-0.68626199	0.94241217	-0.14963915	-0.70494024	0.94953546	0.096291023	-0.8916376	0.95529264	-0.045885879	-0.74849015	1.4196409	-0.18108347	-0.78123252	1.4146404	0.13550133	-0.83934099	1.4448672	-0.03292266	-0.8638768	1.0957658	-0.27440701	-0.84626056	1.0644544	0.19493924	-0.68874112	0.91916048	-0.24552364	-0.67512068	0.90016388	0.26309679
136	0.54	-0.57207867	0.069848384	-0.17344501	-0.771843	0.039238848	0.023232444	-0.69612146	0.12087672	-0.17014193	-0.91548766	0.053959018	0.053397375	-0.66793648	0.13180864	-0.089424298	-0.89304317	0.080681872	-0.03094145	-0.75613267	0.096907747	-0.11261269	-0.96339062	0.03080457	0.0039547822	-0.56901057	0.4873622	-0.18355949	-0.81398649	0.44608471	0.10229008	-0.54328717	0.45757986	-0.066402208	-0.80262196	0.44985783	-0.029086655	-0.72084929	0.83129303	-0.22220292	-0.78111225	0.85957579	0.1585635	-0.68084738	0.94214545	-0.14929174	-0.701004	0.94884049	0.096664403	-0.88664406	0.95432139	-0.046490695	-0.74389006	1.4190522	-0.18096501	-0.77663627	1.4141827	0.13567892	-0.83470225	1.444392	-0.032796658	-0.86056982	1.0958096	-0.27456381	-0.83920887	1.063253	0.19502358	-0.68706298	0.91742868	-0.24815714	-0.66540902	0.90076148	0.26094351
137	0.544	-0.55457719	0.069765076	-0.17249968	-0.77179577	0.039250756	0.023237398	-0.68006904	0.11751738	-0.17009194	-0.91557925	0.054003204	0.053321481	-0.65240086	0.12943862	-0.089389946	-0.89293371	0.080671845	-0.031028206	-0.73949016	0.091973443	-0.1132128	-0.96340412	0.03086412	0.0038673803	-0.56198998	0.48739455	-0.18328281	-0.81296681	0.44581757	0.10236641	-0.53643728	0.45815968	-0.065955344	-0.80104889	0.44947031	-0.02928356	-0.71470939	0.83123983	-0.22221284	-0.77765713	0.85899897	0.1583345	-0.67541335	0.94182355	-0.14896542	-0.69703445	0.94812316	0.096996735	-0.88141415	0.95305706	-0.047330525	-0.73926196	1.4184197	-0.18086326	-0.77200365	1.4136648	0.13583979	-0.83004702	1.4438799	-0.032683028	-0.85729131	1.095829	-0.27478909	-0.83212969	1.0620285	0.19509191	-0.6854216	0.91566748	-0.25078242	-0.65569481	0.9013544	0.25872249
138	0.548	-0.53711244	0.069734325	-0.17147422	-0.77176715	0.039243329	0.023221147	-0.66379456	0.11424263	-0.16997836	-0.91568439	0.054038574	0.05322827	-0.63728593	0.12711357	-0.089474874	-0.89283829	0.08062827	-0.031156168	-0.72268639	0.087269309	-0.11359608	-0.96342142	0.03092375	0.0037622587	-0.55500434	0.48729005	-0.18300071	-0.81202545	0.44537239	0.10198096	-0.52971781	0.45865969	-0.065486549	-0.79949943	0.44905446	-0.02955789	-0.70843505	0.83115102	-0.22214603	-0.77417285	0.85841007	0.15807362	-0.66997691	0.9414541	-0.14867743	-0.693012	0.94739138	0.097298843	-0.87555751	0.95155197	-0.048314937	-0.73461216	1.4177487	-0.18077739	-0.76730324	1.4130923	0.13596906	-0.82537327	1.4433302	-0.032570382	-0.8540677	1.0958308	-0.27504794	-0.82501336	1.0608195	0.19519374	-0.68380937	0.91389291	-0.25340561	-0.64598682	0.90193589	0.25643831
139	0.552	-0.51967906	0.06973459	-0.17034843	-0.77173625	0.03922832	0.023200051	-0.64743567	0.11106329	-0.16988072	-0.91575096	0.05406523	0.053121056	-0.62234368	0.12480614	-0.089536615	-0.89268746	0.080566092	-0.031283866	-0.70588282	0.082776151	-0.11391872	-0.96345351	0.031001556	0.0035914457	-0.54808155	0.4870623	-0.18271499	-0.8111003	0.44473659	0.1010758	-0.52319464	0.45903685	-0.065049674	-0.79785413	0.44861778	-0.029833557	-0.70197468	0.83102087	-0.2219841	-0.77067863	0.85781888	0.15779117	-0.66454568	0.94104508	-0.14843424	-0.68892745	0.9466464	0.097572261	-0.86912877	0.94989148	-0.049430714	-0.72995854	1.4170381	-0.18071271	-0.76253101	1.4124703	0.13606735	-0.82067878	1.4427435	-0.032441866	-0.85090678	1.0958205	-0.27530321	-0.81787296	1.0596338	0.19533064	-0.68221794	0.91211295	-0.25602438	-0.63631504	0.90251022	0.25410225
140	0.556	-0.50226945	0.06975165	-0.16909709	-0.77166886	0.039228273	0.023197819	-0.63109859	0.10799514	-0.1698643	-0.91575221	0.054095371	0.053004806	-0.60734011	0.12254105	-0.089435631	-0.89244473	0.080514237	-0.031381824	-0.68908433	0.0784602	-0.11422055	-0.96351448	0.031111387	0.0032929464	-0.54124753	0.48672728	-0.18247048	-0.80995873	0.44401415	0.09997155	-0.51691082	0.45926076	-0.064682321	-0.79605587	0.44816884	-0.030098389	-0.69551267	0.83083044	-0.22185177	-0.76717931	0.85722733	0.15749711	-0.65909289	0.94060597	-0.14821674	-0.68478706	0.94588531	0.097814577	-0.86284966	0.94823388	-0.050799453	-0.72532341	1.4162814	-0.18067611	-0.75771032	1.4117975	0.13614795	-0.8159617	1.4421185	-0.03228065	-0.84774535	1.0957922	-0.27553269	-0.81073144	1.0584406	0.19545345	-0.68063886	0.91032424	-0.25862432	-0.62670798	0.90308865	0.25173147
